<?xml version="1.0" encoding="UTF-8" standalone="no"?>
<!DOCTYPE svg PUBLIC "-//W3C//DTD SVG 1.0//EN" "http://www.w3.org/TR/2001/PR-SVG-20010719/DTD/svg10.dtd">
<svg width="17cm" height="9cm" viewBox="1 -478 325 167" xmlns="http://www.w3.org/2000/svg" xmlns:xlink="http://www.w3.org/1999/xlink">
  <g>
    <rect style="fill: #ffff7d" x="202.923" y="-401.236" width="121.894" height="41.0276"/>
    <rect style="fill: none; fill-opacity:0; stroke-width: 2; stroke: #000000" x="202.923" y="-401.236" width="121.894" height="41.0276"/>
  </g>
  <g>
    <rect style="fill: #add8e6" x="119.084" y="-476.751" width="88.5958" height="38.0546"/>
    <rect style="fill: none; fill-opacity:0; stroke-width: 2; stroke: #000000" x="119.084" y="-476.751" width="88.5958" height="38.0546"/>
  </g>
  <text font-size="12.7998" style="fill: #000000;text-anchor:middle;font-family:sans-serif;font-style:normal;font-weight:normal" x="263.87" y="-384.273">
    <tspan x="263.87" y="-384.273">Programme</tspan>
    <tspan x="263.87" y="-368.273">Final</tspan>
  </text>
  <g>
    <path style="fill: none; fill-opacity:0; stroke-width: 2; stroke: #000000" d="M 88.7638 -410.956 C 142.062,-465.99 210.451,-442.36 238.859,-409.582"/>
    <polygon style="fill: #000000" points="243.771,-403.914 233.443,-408.196 238.859,-409.582 241,-414.746 "/>
    <polygon style="fill: none; fill-opacity:0; stroke-width: 2; stroke: #000000" points="243.771,-403.914 233.443,-408.196 238.859,-409.582 241,-414.746 "/>
  </g>
  <text font-size="12.7998" style="fill: #000000;text-anchor:middle;font-family:sans-serif;font-style:normal;font-weight:normal" x="163.382" y="-453.274">
    <tspan x="163.382" y="-453.274">Compilateur</tspan>
  </text>
  <g>
    <g>
      <polygon style="fill: #add8e6" points="16.3857,-437.934 85.2407,-437.934 108.192,-414.983 108.192,-323.176 16.3857,-323.176 "/>
      <polygon style="fill: none; fill-opacity:0; stroke-width: 2; stroke: #000000" points="16.3857,-437.934 85.2407,-437.934 108.192,-414.983 108.192,-323.176 16.3857,-323.176 "/>
      <polyline style="fill: none; fill-opacity:0; stroke-width: 2; stroke: #000000" points="85.2407,-437.934 85.2407,-414.983 108.192,-414.983 108.192,-414.983 "/>
    </g>
    <g>
      <polygon style="fill: #add8e6" points="10.5586,-431.275 79.4136,-431.275 102.365,-408.323 102.365,-316.516 10.5586,-316.516 "/>
      <polygon style="fill: none; fill-opacity:0; stroke-width: 2; stroke: #000000" points="10.5586,-431.275 79.4136,-431.275 102.365,-408.323 102.365,-316.516 10.5586,-316.516 "/>
      <polyline style="fill: none; fill-opacity:0; stroke-width: 2; stroke: #000000" points="79.4136,-431.275 79.4136,-408.323 102.365,-408.323 102.365,-408.323 "/>
    </g>
    <g>
      <polygon style="fill: #add8e6" points="2.63955,-426.804 71.4945,-426.804 94.4462,-403.853 94.4462,-312.046 2.63955,-312.046 "/>
      <polygon style="fill: none; fill-opacity:0; stroke-width: 2; stroke: #000000" points="2.63955,-426.804 71.4945,-426.804 94.4462,-403.853 94.4462,-312.046 2.63955,-312.046 "/>
      <polyline style="fill: none; fill-opacity:0; stroke-width: 2; stroke: #000000" points="71.4945,-426.804 71.4945,-403.853 94.4462,-403.853 94.4462,-403.853 "/>
    </g>
    <text font-size="12.7998" style="fill: #000000;text-anchor:middle;font-family:sans-serif;font-style:normal;font-weight:normal" x="48.5429" y="-364.975">
      <tspan x="48.5429" y="-364.975">Code Source</tspan>
    </text>
  </g>
</svg>
